<svg width="64" height="64" viewBox="0 0 64 64" fill="none" xmlns="http://www.w3.org/2000/svg">
<rect width="64" height="64" fill="url(#paint0_linear_217_1057)"/>
<path fill-rule="evenodd" clip-rule="evenodd" d="M41.448 22.5421C38.9412 20.0443 35.6075 18.6682 32.0557 18.6667C24.7373 18.6667 18.781 24.5942 18.778 31.8799C18.7771 34.2088 19.3884 36.482 20.5504 38.486L18.6667 45.3334L25.7054 43.4959C27.6447 44.5485 29.8282 45.1035 32.0503 45.1043H32.0558C39.3735 45.1043 45.3303 39.176 45.3334 31.8902C45.3347 28.3596 43.9548 25.0397 41.448 22.5421ZM32.0558 42.8726H32.0514C30.0712 42.8719 28.1289 42.3423 26.4346 41.3416L26.0315 41.1038L21.8547 42.1941L22.9695 38.1412L22.7071 37.7255C21.6025 35.977 21.019 33.9559 21.0199 31.8805C21.0223 25.825 25.9729 20.8984 32.0603 20.8984C35.0078 20.8995 37.7788 22.0433 39.8624 24.1195C41.9459 26.1955 43.0926 28.9548 43.0914 31.8895C43.089 37.9456 38.1384 42.8726 32.0558 42.8726ZM38.1092 34.6468C37.7774 34.4816 36.1464 33.6828 35.8423 33.5726C35.5382 33.4626 35.317 33.4074 35.0958 33.738C34.8747 34.0685 34.2388 34.8122 34.0453 35.0326C33.8517 35.2528 33.6582 35.2805 33.3265 35.1151C32.9947 34.95 31.9258 34.6012 30.6585 33.4763C29.6723 32.6009 29.0065 31.5197 28.813 31.189C28.6194 30.8585 28.7923 30.6798 28.9585 30.5152C29.1077 30.3672 29.2902 30.1295 29.4562 29.9367C29.6221 29.744 29.6773 29.6062 29.7879 29.3858C29.8986 29.1655 29.8433 28.9726 29.7602 28.8075C29.6773 28.6421 29.0138 27.0169 28.7373 26.3558C28.4681 25.7121 28.1945 25.7992 27.9909 25.789C27.7976 25.7795 27.5762 25.7773 27.355 25.7773C27.1339 25.7773 26.7745 25.86 26.4703 26.1905C26.1663 26.5211 25.3092 27.3199 25.3092 28.9451C25.3092 30.5702 26.4979 32.1401 26.6639 32.3606C26.8297 32.5809 29.0033 35.9158 32.3313 37.3461C33.1227 37.6863 33.7407 37.8894 34.2226 38.0417C35.0174 38.293 35.7406 38.2574 36.3121 38.1725C36.9496 38.0777 38.275 37.3737 38.5514 36.6025C38.8279 35.8312 38.8279 35.17 38.745 35.0324C38.6621 34.8948 38.4409 34.8122 38.1092 34.6468Z" fill="white"/>
<defs>
<linearGradient id="paint0_linear_217_1057" x1="32" y1="0" x2="32" y2="64" gradientUnits="userSpaceOnUse">
<stop stop-color="#5EFB7A"/>
<stop offset="1" stop-color="#26D044"/>
</linearGradient>
</defs>
</svg>

