<svg width="64" height="64" viewBox="0 0 64 64" fill="none" xmlns="http://www.w3.org/2000/svg">
<rect width="64" height="64" fill="url(#paint0_linear_217_1053)"/>
<path fill-rule="evenodd" clip-rule="evenodd" d="M19.6037 31.3009C26.7605 28.0497 31.5249 25.8893 33.9173 24.8412C40.7265 21.8681 42.1578 21.3547 43.078 21.3333C43.2825 21.3333 43.7323 21.3761 44.039 21.6328C44.2844 21.8467 44.3458 22.1247 44.3867 22.3386C44.4276 22.5525 44.4685 23.0017 44.4276 23.344C44.0595 27.408 42.4646 37.2687 41.6466 41.8033C41.299 43.7284 40.6242 44.3701 39.9699 44.4343C38.5385 44.5626 37.4548 43.4503 36.0848 42.5092C33.9173 41.0333 32.7108 40.1135 30.6047 38.659C28.1714 36.9906 29.7459 36.0709 31.1363 34.5736C31.5044 34.1886 37.782 28.1994 37.9046 27.6647C37.9251 27.6005 37.9251 27.3438 37.782 27.2155C37.6388 27.0872 37.4343 27.1299 37.2708 27.1727C37.0458 27.2155 33.6106 29.6112 26.9241 34.3383C25.9425 35.0442 25.0633 35.3864 24.2658 35.365C23.3865 35.3436 21.7098 34.8516 20.442 34.4239C18.9084 33.9105 17.6815 33.6324 17.7838 32.7341C17.8451 32.2635 18.4586 31.7929 19.6037 31.3009Z" fill="white"/>
<defs>
<linearGradient id="paint0_linear_217_1053" x1="31.9734" y1="0" x2="31.9734" y2="63.4938" gradientUnits="userSpaceOnUse">
<stop stop-color="#2AABEE"/>
<stop offset="1" stop-color="#229ED9"/>
</linearGradient>
</defs>
</svg>

