<svg width="37" height="54" viewBox="0 0 37 54" fill="none" xmlns="http://www.w3.org/2000/svg">
<circle cx="18.5" cy="35.5" r="17.5" fill="#06B05D"/>
<circle cx="18.5" cy="35.5" r="17.5" fill="url(#paint0_radial_383_77)" fill-opacity="0.8"/>
<circle cx="18.5" cy="35.5" r="17" stroke="#D1FFE9" stroke-opacity="0.1"/>
<g filter="url(#filter0_f_383_77)">
<circle cx="18.5" cy="35.5" r="15.5" fill="url(#paint1_radial_383_77)" fill-opacity="0.3"/>
</g>
<path d="M18 31.5C18 35.366 14.866 38.5 11 38.5C7.13401 38.5 4 35.366 4 31.5C4 27.634 7.13401 24.5 11 24.5C14.866 24.5 18 27.634 18 31.5Z" fill="white" fill-opacity="0.2"/>
<circle cx="9" cy="29" r="3" fill="#D1FFE9"/>
<circle cx="7.5" cy="35.5" r="1.5" fill="#EDFFF6"/>
<rect x="13" y="16" width="11" height="3" fill="#6F848C"/>
<rect x="13" y="16" width="11" height="3" fill="url(#paint2_linear_383_77)" fill-opacity="0.2"/>
<path d="M18 -1H19V16H18V-1Z" fill="#6F848C"/>
<defs>
<filter id="filter0_f_383_77" x="0" y="17" width="37" height="37" filterUnits="userSpaceOnUse" color-interpolation-filters="sRGB">
<feFlood flood-opacity="0" result="BackgroundImageFix"/>
<feBlend mode="normal" in="SourceGraphic" in2="BackgroundImageFix" result="shape"/>
<feGaussianBlur stdDeviation="1.5" result="effect1_foregroundBlur_383_77"/>
</filter>
<radialGradient id="paint0_radial_383_77" cx="0" cy="0" r="1" gradientUnits="userSpaceOnUse" gradientTransform="translate(11 31) rotate(29.0546) scale(25.7391 15.832)">
<stop stop-color="#00AD58" stop-opacity="0"/>
<stop offset="1" stop-color="#009F51"/>
</radialGradient>
<radialGradient id="paint1_radial_383_77" cx="0" cy="0" r="1" gradientUnits="userSpaceOnUse" gradientTransform="translate(7 35) scale(15)">
<stop stop-color="white"/>
<stop offset="1" stop-color="white" stop-opacity="0"/>
</radialGradient>
<linearGradient id="paint2_linear_383_77" x1="23.5" y1="16.5" x2="13" y2="16.5" gradientUnits="userSpaceOnUse">
<stop/>
<stop offset="0.636905" stop-opacity="0"/>
<stop offset="1"/>
</linearGradient>
</defs>
</svg>
