<svg width="29" height="50" viewBox="0 0 29 50" fill="none" xmlns="http://www.w3.org/2000/svg">
<circle cx="14.5" cy="35.5" r="13.5" fill="#06B05D"/>
<circle cx="14.5" cy="35.5" r="13.5" fill="url(#paint0_radial_415_2)" fill-opacity="0.8"/>
<circle cx="14.5" cy="35.5" r="13" stroke="#D1FFE9" stroke-opacity="0.1"/>
<g filter="url(#filter0_f_415_2)">
<circle cx="14.5" cy="35.5" r="11.5" fill="url(#paint1_radial_415_2)" fill-opacity="0.3"/>
</g>
<path d="M16 33.5C16 37.0899 13.0899 40 9.5 40C5.91015 40 3 37.0899 3 33.5C3 29.9101 5.91015 27 9.5 27C13.0899 27 16 29.9101 16 33.5Z" fill="white" fill-opacity="0.2"/>
<circle cx="7.5" cy="31.5" r="2.5" fill="#D1FFE9"/>
<circle cx="6.5" cy="36.5" r="1.5" fill="#EDFFF6"/>
<path d="M10 20H19V22.78H10V20Z" fill="#6F848C"/>
<path d="M10 20H19V22.78H10V20Z" fill="url(#paint2_linear_415_2)" fill-opacity="0.2"/>
<path d="M14 -1H15V20H14V-1Z" fill="#6F848C"/>
<defs>
<filter id="filter0_f_415_2" x="0" y="21" width="29" height="29" filterUnits="userSpaceOnUse" color-interpolation-filters="sRGB">
<feFlood flood-opacity="0" result="BackgroundImageFix"/>
<feBlend mode="normal" in="SourceGraphic" in2="BackgroundImageFix" result="shape"/>
<feGaussianBlur stdDeviation="1.5" result="effect1_foregroundBlur_415_2"/>
</filter>
<radialGradient id="paint0_radial_415_2" cx="0" cy="0" r="1" gradientUnits="userSpaceOnUse" gradientTransform="translate(8.71429 32.0286) rotate(29.0546) scale(19.8559 12.2132)">
<stop stop-color="#00AD58" stop-opacity="0"/>
<stop offset="1" stop-color="#009F51"/>
</radialGradient>
<radialGradient id="paint1_radial_415_2" cx="0" cy="0" r="1" gradientUnits="userSpaceOnUse" gradientTransform="translate(5.96774 35.129) scale(11.129)">
<stop stop-color="white"/>
<stop offset="1" stop-color="white" stop-opacity="0"/>
</radialGradient>
<linearGradient id="paint2_linear_415_2" x1="18.5909" y1="20.5" x2="10" y2="20.5" gradientUnits="userSpaceOnUse">
<stop/>
<stop offset="0.636905" stop-opacity="0"/>
<stop offset="1"/>
</linearGradient>
</defs>
</svg>
