<svg width="29" height="48" viewBox="0 0 29 48" fill="none" xmlns="http://www.w3.org/2000/svg">
<circle cx="14.5" cy="33.5" r="13.5" fill="#FF6246"/>
<circle cx="14.5" cy="33.5" r="13.5" fill="url(#paint0_radial_415_10)" fill-opacity="0.8"/>
<circle cx="14.5" cy="33.5" r="13" stroke="#E48A7A" stroke-opacity="0.5"/>
<g filter="url(#filter0_f_415_10)">
<circle cx="14.5" cy="33.5" r="11.5" fill="url(#paint1_linear_415_10)" fill-opacity="0.3"/>
</g>
<path d="M16 31.5C16 35.0899 13.0899 38 9.5 38C5.91015 38 3 35.0899 3 31.5C3 27.9101 5.91015 25 9.5 25C13.0899 25 16 27.9101 16 31.5Z" fill="white" fill-opacity="0.2"/>
<circle opacity="0.8" cx="7.5" cy="29.5" r="2.5" fill="white"/>
<circle opacity="0.8" cx="6.5" cy="34.5" r="1.5" fill="white"/>
<path d="M10 18H19V20.78H10V18Z" fill="#6F848C"/>
<path d="M10 18H19V20.78H10V18Z" fill="url(#paint2_linear_415_10)" fill-opacity="0.2"/>
<path d="M14 -1H15V18H14V-1Z" fill="#6F848C"/>
<defs>
<filter id="filter0_f_415_10" x="0" y="19" width="29" height="29" filterUnits="userSpaceOnUse" color-interpolation-filters="sRGB">
<feFlood flood-opacity="0" result="BackgroundImageFix"/>
<feBlend mode="normal" in="SourceGraphic" in2="BackgroundImageFix" result="shape"/>
<feGaussianBlur stdDeviation="1.5" result="effect1_foregroundBlur_415_10"/>
</filter>
<radialGradient id="paint0_radial_415_10" cx="0" cy="0" r="1" gradientUnits="userSpaceOnUse" gradientTransform="translate(8.71429 30.0286) rotate(29.0546) scale(19.8559 12.2132)">
<stop stop-color="#D92404" stop-opacity="0"/>
<stop offset="1" stop-color="#D82100"/>
</radialGradient>
<linearGradient id="paint1_linear_415_10" x1="4.48387" y1="30.9032" x2="16.3548" y2="33.129" gradientUnits="userSpaceOnUse">
<stop stop-color="white"/>
<stop offset="1" stop-color="white" stop-opacity="0"/>
</linearGradient>
<linearGradient id="paint2_linear_415_10" x1="18.5909" y1="18.5055" x2="10" y2="18.5055" gradientUnits="userSpaceOnUse">
<stop/>
<stop offset="0.607143" stop-opacity="0"/>
<stop offset="1"/>
</linearGradient>
</defs>
</svg>
